<?xml version="1.0" standalone="no"?>
<!DOCTYPE svg PUBLIC "-//W3C//DTD SVG 20010904//EN"
 "http://www.w3.org/TR/2001/REC-SVG-20010904/DTD/svg10.dtd">
<svg version="1.0" xmlns="http://www.w3.org/2000/svg"
 width="1728.000000pt" height="3408.000000pt" viewBox="0 0 1728.000000 3408.000000"
 preserveAspectRatio="xMidYMid meet">
<metadata>
Created by potrace 1.13, written by Peter Selinger 2001-2015
</metadata>
<g transform="translate(0.000000,3408.000000) scale(0.160000,-0.160000)"
fill="#000000" stroke="none">
<path d="M5050 10675 c-382 -43 -737 -148 -1084 -321 -442 -222 -744 -467
-1061 -864 -311 -389 -533 -894 -620 -1414 -21 -124 -50 -428 -49 -511 2 -162
40 -484 80 -662 62 -278 195 -628 324 -850 297 -509 638 -862 1105 -1140 410
-244 810 -380 1272 -433 194 -22 313 -25 518 -10 521 37 927 153 1321 375 337
192 591 396 828 665 233 265 370 476 518 800 124 270 205 569 255 930 25 182
25 636 0 818 l-18 133 119 257 c66 141 141 304 167 362 26 58 58 130 72 160
23 52 3 34 -348 -315 -205 -203 -375 -371 -378 -372 -2 -2 10 -60 27 -130 52
-210 73 -366 79 -598 8 -292 -13 -457 -93 -735 -86 -295 -184 -520 -326 -743
-42 -67 -102 -166 -133 -219 -31 -54 -57 -98 -59 -98 -2 0 8 62 20 138 13 75
24 147 24 160 0 32 -91 88 -177 108 -72 17 -204 15 -254 -4 -16 -6 -74 -75
-154 -181 -70 -95 -129 -170 -131 -168 -2 2 16 101 41 221 l45 217 -36 97
c-58 157 -142 293 -268 437 l-35 39 -312 -52 c-171 -29 -313 -51 -315 -49 -2
2 95 59 215 126 l219 123 1490 1355 1490 1354 -137 194 c-76 107 -149 209
-162 226 l-24 31 -95 -46 c-52 -25 -844 -368 -1760 -762 -916 -393 -1819 -787
-2008 -875 -188 -87 -344 -159 -346 -159 -3 0 72 75 165 167 93 91 169 171
169 176 0 21 -160 172 -229 215 l-74 46 -140 -47 c-78 -26 -142 -45 -143 -44
-2 1 38 54 87 117 100 128 110 146 145 275 109 395 -52 758 -386 871 -84 28
-112 31 -104 9 4 -8 1 -15 -4 -15 -6 0 -116 -11 -244 -26 -304 -33 -344 -37
-338 -31 3 2 47 17 99 31 52 15 126 45 165 66 197 107 520 217 780 265 377 69
882 48 1246 -51 477 -131 910 -390 1243 -744 l87 -92 102 45 c105 47 760 306
781 309 7 1 -31 4 -83 7 -73 5 -157 -1 -360 -26 -249 -29 -266 -30 -287 -15
-12 10 -62 52 -111 94 -383 330 -884 588 -1372 707 -326 79 -740 109 -1040 76z
m2140 -2220 c0 -18 -617 -456 -1005 -715 -513 -343 -663 -430 -1375 -798 -286
-148 -800 -390 -800 -377 0 8 340 259 530 392 956 668 1359 902 2254 1302 132
59 275 129 316 154 81 50 80 50 80 42z"/>
<path d="M9800 10456 c-78 -28 -157 -67 -269 -134 l-84 -51 -27 29 c-15 16
-39 32 -55 36 -35 9 -126 -19 -162 -50 -35 -31 -25 -52 29 -61 49 -8 88 -26
108 -50 11 -14 8 -21 -24 -54 -38 -38 -38 -40 -26 -78 16 -46 70 -130 89 -138
8 -3 37 2 64 12 48 17 49 17 64 -2 10 -14 12 -31 7 -60 -13 -72 -11 -99 9
-103 22 -5 111 62 126 95 15 34 14 85 -4 109 -14 20 -10 24 78 87 l92 66 63
-62 c34 -34 62 -57 62 -52 0 5 -26 35 -57 67 -31 32 -55 59 -52 61 2 1 32 26
66 55 135 115 170 243 78 286 -45 22 -97 19 -175 -8z m29 -82 c13 -9 29 -32
37 -50 39 -92 -76 -171 -155 -107 -31 25 -39 94 -17 128 29 45 93 58 135 29z"/>
<path d="M9950 9974 c0 -5 18 -28 40 -49 22 -21 40 -35 40 -29 0 5 -18 28 -40
49 -22 21 -40 35 -40 29z"/>
<path d="M387 3753 c-63 -143 -70 -212 -61 -661 l7 -373 541 6 c298 3 593 10
657 15 167 14 311 63 398 137 l34 29 -148 87 c-146 86 -147 87 -189 76 -25 -7
-225 -13 -509 -16 l-469 -5 4 263 c3 211 8 272 20 305 l16 42 -128 76 c-71 42
-133 76 -138 76 -5 0 -21 -26 -35 -57z"/>
<path d="M5265 2308 c3 -101 7 -246 10 -323 3 -77 8 -282 11 -455 4 -173 8
-324 9 -335 1 -11 4 -76 5 -145 2 -69 5 -111 7 -95 3 17 34 369 71 783 l67
752 -93 0 -93 0 6 -182z"/>
</g>
</svg>
