<?xml version="1.0" standalone="no"?>
<!DOCTYPE svg PUBLIC "-//W3C//DTD SVG 20010904//EN"
 "http://www.w3.org/TR/2001/REC-SVG-20010904/DTD/svg10.dtd">
<svg version="1.0" xmlns="http://www.w3.org/2000/svg"
 width="1590.000000pt" height="738.000000pt" viewBox="0 0 1590.000000 738.000000"
 preserveAspectRatio="xMidYMid meet">
<metadata>
Created by potrace 1.15, written by Peter Selinger 2001-2017
</metadata>
<g transform="translate(0.000000,738.000000) scale(0.100000,-0.100000)"
fill="#000000" stroke="none">
<path d="M0 3690 l0 -3690 7950 0 7950 0 0 3690 0 3690 -7950 0 -7950 0 0
-3690z m9541 1984 c114 -19 300 -79 399 -129 179 -90 364 -238 376 -301 9 -48
-2 -83 -38 -116 -25 -23 -39 -28 -79 -28 -44 0 -54 5 -111 53 -134 113 -261
185 -418 235 -135 43 -208 55 -345 55 -254 0 -500 -81 -690 -229 -39 -29 -88
-67 -109 -84 -101 -78 -235 7 -196 125 20 61 209 209 370 290 94 47 282 109
380 125 41 6 82 13 90 15 51 10 289 3 371 -11z m-33 -410 c172 -35 346 -123
466 -235 70 -66 71 -67 71 -119 0 -47 -3 -55 -37 -86 -29 -26 -46 -34 -75 -34
-41 0 -60 10 -150 81 -83 66 -136 94 -239 128 -84 28 -104 31 -222 31 -104 0
-144 -4 -198 -21 -105 -32 -185 -75 -276 -148 -79 -63 -85 -66 -136 -66 -48 0
-57 3 -83 33 -24 27 -29 41 -29 84 0 51 2 54 63 113 107 105 300 204 467 239
90 20 283 20 378 0z m-45 -409 c124 -32 271 -135 304 -213 34 -82 -47 -177
-136 -157 -16 3 -56 28 -89 54 -96 77 -184 102 -285 81 -52 -10 -101 -38 -207
-116 -48 -35 -102 -28 -147 21 -28 29 -33 42 -33 82 0 45 3 50 63 108 65 64
155 116 243 140 67 18 217 18 287 0z m-90 -419 c38 -15 84 -66 93 -102 25
-100 -85 -206 -182 -174 -111 37 -147 166 -67 242 49 47 99 58 156 34z m-3536
-581 c60 -18 149 -92 169 -142 8 -18 14 -61 14 -96 0 -87 -40 -166 -120 -241
-60 -55 -210 -147 -308 -187 -36 -15 -54 -28 -56 -43 -3 -12 -9 -59 -16 -106
-6 -47 -18 -126 -27 -175 l-15 -90 -67 -45 c-36 -25 -72 -46 -79 -48 -13 -4
-177 82 -186 97 -3 5 3 55 13 112 40 218 63 440 64 616 l0 173 57 44 c107 84
192 123 330 150 43 8 173 -3 227 -19z m1497 3 c3 -13 10 -50 16 -83 7 -33 19
-85 28 -115 l15 -55 11 41 c15 56 27 68 105 107 71 35 237 94 244 87 2 -3 -6
-81 -19 -175 -24 -173 -41 -393 -48 -635 l-5 -135 -48 -44 c-79 -72 -104 -87
-201 -119 l-92 -31 -19 37 c-10 20 -33 78 -51 127 -18 50 -37 95 -43 100 -5 6
-8 -32 -5 -100 l3 -109 -58 -40 -57 -40 -105 55 c-57 30 -114 61 -126 70 l-22
17 16 138 c28 230 37 370 37 564 0 213 -15 183 125 253 64 32 253 102 287 106
4 1 10 -9 12 -21z m-2459 -12 c141 -66 225 -249 225 -494 0 -348 -141 -589
-383 -654 -153 -41 -266 12 -342 162 -125 246 -73 716 97 876 126 120 288 164
403 110z m1974 -13 c40 -154 45 -136 -60 -208 -52 -35 -94 -55 -153 -70 l-81
-22 -9 -57 c-4 -31 -6 -60 -3 -63 6 -5 48 1 160 23 25 5 27 3 27 -28 -1 -18
-11 -62 -23 -97 -19 -57 -28 -68 -69 -94 -26 -15 -69 -34 -95 -40 -50 -13 -60
-27 -62 -94 -1 -37 -25 -37 209 2 74 13 136 22 138 20 8 -7 -52 -169 -72 -193
-41 -47 -113 -78 -251 -107 -141 -29 -260 -61 -368 -101 -39 -13 -71 -23 -73
-21 -2 1 10 52 27 112 70 263 121 562 137 800 l7 110 125 48 c76 29 185 61
280 81 205 44 197 44 209 -1z"/>
<path d="M5833 3809 c-17 -17 -4 -39 21 -35 11 2 15 1 8 -1 -16 -6 -9 -29 7
-25 6 1 11 -7 11 -19 0 -14 5 -19 15 -16 8 4 17 2 20 -3 4 -6 1 -10 -5 -10
-14 0 -4 -51 12 -61 6 -4 5 -8 -3 -11 -12 -4 -12 -7 0 -21 7 -10 9 -17 3 -17
-5 0 -10 -19 -10 -41 -1 -23 -6 -47 -11 -52 -6 -6 -11 -19 -11 -28 0 -9 -7
-19 -15 -23 -8 -3 -15 -15 -15 -26 0 -11 -7 -20 -15 -20 -9 0 -19 -9 -23 -19
-4 -11 -35 -42 -70 -70 -35 -28 -56 -51 -48 -51 9 0 16 5 16 10 0 6 6 10 14
10 19 0 152 100 148 112 -1 5 7 12 18 15 11 3 20 9 20 14 0 4 12 20 26 36 14
16 23 35 21 45 -3 10 0 18 8 18 13 0 25 39 31 98 2 21 -1 30 -8 26 -7 -4 -8 1
-3 16 6 19 4 22 -9 17 -19 -7 -22 9 -3 17 9 5 9 7 0 12 -7 3 -10 11 -7 19 9
22 -16 28 -39 8 l-22 -18 18 22 c21 24 14 48 -10 39 -11 -4 -13 -2 -9 9 4 10
-1 15 -14 15 -11 0 -20 5 -20 10 0 14 -33 13 -47 -1z"/>
<path d="M5565 3588 c-6 -21 -11 -228 -5 -228 10 0 54 32 88 64 63 59 75 113
35 159 -19 21 -111 24 -118 5z"/>
<path d="M5509 3572 c-13 -10 -32 -21 -41 -25 -11 -4 -18 -17 -18 -31 0 -19 4
-24 18 -20 9 2 7 -1 -5 -7 -27 -14 -32 -45 -6 -35 16 6 16 6 0 -12 -9 -10 -17
-22 -17 -26 0 -5 8 -5 17 -2 16 6 16 6 0 -12 -24 -26 -23 -49 1 -31 9 7 6 0
-8 -15 -22 -26 -23 -28 -5 -23 19 7 19 6 3 -7 -17 -12 -25 -36 -13 -36 3 0 17
8 32 17 14 10 32 18 40 19 23 4 29 14 14 23 -9 6 -10 11 -2 15 15 10 14 39 -1
31 -7 -4 -5 0 5 8 12 11 17 29 17 72 0 53 -1 56 -17 44 -17 -13 -17 -13 0 7 9
11 17 24 17 29 0 4 -8 1 -17 -6 -15 -11 -14 -9 1 9 25 29 16 37 -15 14z"/>
<path d="M5470 3129 c-19 -11 -40 -19 -46 -19 -11 0 -28 -70 -19 -78 3 -3 13
1 22 9 10 7 6 0 -9 -17 -28 -30 -38 -62 -16 -48 6 4 4 -3 -5 -17 -22 -30 -22
-43 1 -35 14 5 13 3 -3 -9 -11 -9 -20 -25 -21 -38 -1 -12 -4 -29 -7 -37 -12
-32 -27 -123 -21 -129 3 -3 12 3 21 14 8 11 19 19 24 17 14 -3 69 37 69 50 0
6 -7 5 -17 -3 -10 -8 -5 1 10 20 28 33 30 52 4 35 -7 -5 -5 -2 5 8 21 19 25
64 6 52 -7 -4 -5 2 5 13 26 30 22 51 -5 27 -19 -16 -18 -13 5 18 32 44 36 70
7 43 -18 -17 -20 -17 -14 -2 3 9 10 17 15 17 11 0 32 40 25 47 -3 3 -11 2 -19
-3 -7 -5 -5 -2 5 8 10 9 18 24 18 34 0 16 -1 16 -20 -1 -11 -10 -20 -15 -20
-11 0 4 10 16 23 26 31 26 18 31 -23 9z"/>
<path d="M7286 3845 c-10 -8 -23 -12 -27 -9 -9 5 -69 -23 -69 -32 0 -4 6 -4
14 -1 18 7 25 -11 33 -85 4 -44 9 -58 19 -54 11 4 11 1 1 -16 -9 -16 -9 -22 0
-25 7 -2 9 -11 6 -20 -3 -8 0 -19 8 -24 8 -5 9 -9 3 -9 -8 0 -8 -19 3 -67 23
-111 33 -144 44 -137 6 3 7 -4 3 -22 -4 -15 -3 -25 2 -21 5 3 10 -17 10 -45 1
-27 7 -55 13 -61 9 -9 11 0 8 38 -2 28 -1 59 3 70 4 11 10 49 14 83 6 51 5 62
-6 56 -7 -4 -5 2 5 13 28 32 21 50 -10 22 -27 -23 -27 -23 1 8 33 37 28 56 -6
27 l-23 -19 23 26 c17 20 21 33 16 53 -4 19 -11 25 -22 21 -12 -4 -13 -3 -3 9
13 16 6 76 -8 76 -5 0 -6 12 -3 26 4 21 2 25 -9 19 -10 -6 -11 -5 -3 4 8 8 8
27 1 61 -11 54 -13 56 -41 35z"/>
<path d="M7710 3805 c-16 -17 -27 -22 -39 -15 -22 11 -50 -5 -46 -28 1 -9 -2
-28 -7 -41 -7 -20 -6 -22 9 -17 15 6 16 5 1 -11 -8 -10 -15 -25 -15 -33 -1 -8
-4 -24 -9 -34 -6 -16 -4 -18 12 -13 17 6 17 5 3 -5 -16 -14 -32 -58 -20 -58 4
0 12 5 19 12 6 6 15 9 18 5 4 -3 -5 -12 -20 -18 -17 -8 -26 -20 -26 -36 0 -14
4 -21 10 -18 16 10 12 -11 -5 -25 -19 -16 -22 -105 -2 -94 6 4 4 -2 -5 -13
-12 -12 -18 -35 -18 -64 l1 -44 51 55 c28 30 42 42 30 25 -11 -16 -34 -43 -51
-59 -31 -29 -41 -56 -21 -56 6 0 3 -11 -6 -25 -26 -39 -8 -43 30 -6 26 26 35
29 39 17 4 -9 1 -13 -6 -11 -16 6 -77 -50 -77 -70 0 -18 11 -19 30 -2 8 6 5 1
-6 -13 -17 -20 -22 -39 -23 -99 l-1 -74 28 24 27 24 -27 -31 c-29 -31 -36 -54
-18 -54 6 0 10 5 10 12 0 6 3 8 7 5 3 -4 -2 -15 -11 -26 -11 -12 -16 -31 -14
-51 l3 -31 55 50 c30 28 50 50 44 51 -6 0 -21 -11 -34 -25 -13 -14 -28 -25
-34 -25 -6 1 9 19 34 40 25 22 38 40 31 40 -12 0 -12 3 -3 12 19 19 15 51 -5
44 -17 -6 -17 -5 0 8 19 15 23 46 5 46 -9 0 -9 3 0 12 15 15 16 42 1 32 -8 -5
-8 -1 0 14 15 28 14 45 -1 35 -7 -4 -5 5 5 20 9 14 17 34 17 43 0 11 -5 14
-17 10 -17 -6 -17 -5 0 8 20 15 23 46 5 46 -10 0 -10 2 0 9 8 4 12 19 11 32
-2 13 1 30 6 38 5 10 4 16 -3 19 -9 3 -9 9 -1 23 7 15 7 24 -1 34 -8 10 -8 15
0 20 7 4 9 18 6 30 -3 13 -2 27 4 30 5 3 10 11 10 16 0 6 -5 7 -11 3 -8 -5 -8
-1 0 14 15 29 14 65 -1 56 -7 -4 -5 2 5 13 18 21 24 48 7 38 -16 -10 -12 11 5
25 18 15 20 40 3 40 -7 0 -6 6 4 18 18 21 22 66 5 55 -7 -3 -3 3 7 15 27 31
14 37 -14 7z"/>
<path d="M7099 3262 c-1 -10 -3 -40 -5 -69 -4 -46 -2 -52 14 -46 16 6 16 5 1
-13 -9 -10 -17 -35 -17 -54 -1 -33 0 -34 14 -16 8 11 14 15 14 9 0 -6 -7 -16
-15 -23 -8 -7 -15 -19 -15 -28 0 -12 6 -10 28 9 l27 24 -27 -31 c-32 -35 -39
-66 -11 -43 17 13 17 13 0 -13 -23 -37 -21 -59 3 -29 27 31 26 17 -1 -21 -12
-16 -18 -32 -15 -36 4 -3 11 0 16 8 7 11 10 11 10 2 0 -7 -7 -15 -15 -18 -8
-4 -15 -15 -15 -26 0 -15 4 -18 18 -13 14 5 15 4 5 -6 -7 -7 -13 -24 -13 -38
l1 -26 19 24 c11 13 20 20 20 15 0 -4 -9 -18 -21 -30 -14 -15 -18 -29 -13 -48
8 -33 17 -33 42 -1 11 14 24 25 30 25 14 0 36 29 28 37 -3 4 -13 -2 -22 -13
-14 -18 -15 -18 -4 4 6 12 14 22 19 22 8 0 4 225 -5 268 -2 13 -8 21 -12 18
-5 -3 -6 8 -4 25 5 31 -5 37 -28 17 -9 -8 -8 -5 1 7 14 17 15 26 4 60 -6 22
-17 39 -24 37 -9 -2 -9 3 -1 18 6 11 9 20 8 21 -28 7 -38 5 -39 -9z"/>
<path d="M4750 3839 c-15 -26 -11 -30 34 -32 23 -1 34 -6 32 -14 -8 -20 7 -24
26 -6 10 9 18 11 18 5 0 -6 -4 -14 -10 -17 -16 -10 -11 -26 8 -23 11 2 16 -3
14 -15 -2 -10 2 -16 10 -15 6 2 12 -6 13 -17 0 -11 6 -19 13 -17 9 2 11 -4 7
-18 -5 -15 -2 -20 12 -20 12 0 14 -3 6 -8 -7 -4 -9 -13 -4 -21 5 -7 14 -10 20
-7 6 4 11 3 11 -3 0 -5 -6 -11 -12 -14 -10 -4 -10 -7 -1 -18 10 -10 18 -8 39
12 l27 24 -17 -27 c-10 -14 -24 -29 -31 -32 -9 -3 -12 -12 -9 -21 5 -12 9 -13
20 -4 8 6 14 8 14 4 0 -4 -8 -14 -17 -22 -13 -10 -15 -16 -6 -19 8 -4 11 -15
6 -31 -5 -23 -3 -25 13 -19 15 6 17 5 7 -5 -16 -16 -17 -49 -1 -49 9 0 9 -3 0
-12 -17 -17 -15 -41 3 -34 8 3 15 1 15 -3 0 -5 -7 -12 -16 -15 -12 -5 -15 -20
-14 -68 1 -35 -1 -72 -6 -82 -5 -13 -3 -21 5 -24 9 -3 9 -7 0 -18 -6 -8 -9
-23 -6 -34 3 -11 1 -20 -4 -20 -5 0 -9 -7 -9 -15 0 -8 6 -15 12 -15 7 0 2 -7
-11 -16 -13 -10 -21 -23 -18 -33 2 -10 -2 -26 -9 -36 -16 -22 -18 -39 -4 -30
6 3 10 1 10 -4 0 -6 -6 -11 -14 -11 -13 0 -33 -38 -27 -49 2 -2 -1 -7 -6 -10
-10 -8 -53 -68 -53 -76 0 -3 13 1 29 9 35 18 111 112 111 136 0 10 7 20 15 24
8 3 15 17 15 31 0 14 4 25 9 25 15 0 22 33 9 41 -9 6 -8 10 5 15 9 3 17 15 17
26 0 17 -2 18 -15 8 -9 -7 -18 -10 -21 -7 -3 3 8 13 25 22 20 10 31 23 31 36
0 18 -2 19 -15 9 -10 -8 -15 -9 -15 -2 0 6 9 16 20 22 25 14 27 45 3 36 -16
-5 -16 -5 -2 6 9 7 19 28 22 46 6 31 5 33 -16 28 l-22 -6 23 11 c18 10 22 20
22 61 0 26 -3 48 -7 48 -4 0 -18 -10 -32 -22 l-24 -23 19 27 c10 15 22 28 27
28 4 0 7 12 7 27 0 25 0 26 -20 8 -11 -10 -20 -15 -20 -12 0 3 9 15 20 25 26
24 18 60 -9 40 -13 -10 -13 -9 2 8 23 28 22 37 -5 29 -21 -6 -22 -5 -6 8 18
15 14 48 -12 96 -9 18 -14 20 -26 10 -16 -13 -19 2 -3 18 17 17 1 37 -17 22
-9 -7 -14 -8 -14 -1 0 6 5 12 12 14 6 2 8 10 4 17 -5 7 -14 10 -21 7 -8 -3
-11 2 -8 15 7 24 -4 24 -31 2 -12 -10 -15 -11 -8 -3 19 22 15 50 -9 50 -11 0
-18 4 -15 8 3 5 -6 15 -19 22 -20 11 -27 11 -42 -1 -15 -12 -16 -12 -10 5 6
16 4 17 -19 12 -17 -5 -23 -3 -19 4 3 5 -1 10 -9 10 -8 0 -20 -9 -26 -21z"/>
<path d="M4649 3549 c-13 -10 -29 -19 -35 -19 -7 0 -15 -7 -18 -16 -6 -15 -4
-15 11 -4 10 8 5 1 -10 -14 -16 -16 -26 -30 -24 -33 5 -5 40 13 72 37 20 15
20 15 1 -7 -11 -13 -24 -23 -31 -23 -6 0 -22 -11 -35 -25 -21 -23 -17 -35 6
-17 5 4 -1 -2 -13 -13 -28 -26 -33 -65 -5 -44 9 7 6 1 -7 -13 -13 -15 -21 -34
-18 -42 4 -9 2 -18 -2 -20 -5 -3 -8 -33 -9 -66 0 -38 4 -58 10 -54 6 4 6 -2
-1 -14 -16 -30 -14 -42 7 -36 16 5 16 5 0 -6 -10 -6 -18 -20 -18 -32 0 -15 4
-18 18 -13 14 5 15 4 5 -6 -20 -20 -16 -42 5 -34 14 5 15 4 5 -6 -20 -20 -15
-31 10 -24 21 6 21 5 3 -9 -18 -14 -18 -17 -2 -41 21 -33 42 -41 61 -25 12 10
15 9 15 -4 0 -18 15 -22 25 -6 3 6 1 10 -5 10 -6 0 -8 5 -5 10 3 6 2 10 -4 10
-5 0 -8 9 -6 20 5 26 -15 26 -22 1 -3 -11 -12 -22 -21 -26 -14 -5 -15 -4 -4 6
20 21 14 31 -10 18 -18 -9 -21 -9 -11 1 6 7 21 17 34 24 32 16 38 40 8 31 -24
-8 -24 -8 -5 14 11 11 16 24 12 29 -4 4 -14 -2 -22 -12 -8 -12 -14 -14 -14 -7
0 7 10 21 23 31 12 10 19 22 15 26 -5 4 -18 -1 -29 -12 -22 -19 -22 -19 -10 4
6 12 16 22 21 22 6 0 10 11 10 25 0 19 -4 23 -17 18 -17 -5 -17 -5 -2 8 9 8
20 36 24 64 l7 50 -21 -19 c-12 -11 -21 -14 -21 -9 0 6 9 17 20 24 15 11 22
30 27 79 6 63 6 65 -13 50 -10 -8 -7 -1 9 16 31 35 35 49 10 40 -13 -4 -11 0
5 14 13 11 25 26 26 34 1 8 10 24 19 34 17 19 17 20 -6 20 -13 0 -35 -9 -48
-19z"/>
<path d="M4710 3518 c-37 -62 -55 -170 -55 -338 0 -139 3 -160 23 -204 26 -56
34 -54 75 22 73 134 85 396 24 506 -29 52 -42 55 -67 14z"/>
<path d="M6798 3834 c-13 -13 -20 -14 -38 -4 -19 10 -26 8 -46 -11 -20 -19
-24 -20 -24 -6 0 22 -8 21 -33 0 -12 -11 -17 -12 -12 -4 6 11 3 13 -16 7 -13
-5 -37 -9 -53 -11 -16 -2 -43 -13 -60 -26 -19 -14 -26 -16 -17 -6 21 27 -2 20
-50 -15 -24 -17 -38 -24 -30 -15 7 9 11 17 8 17 -13 0 -57 -24 -57 -31 0 -4
-9 -6 -20 -4 -23 4 -50 -3 -50 -14 0 -13 135 1 151 15 13 12 18 12 21 2 4 -10
11 -8 32 6 16 10 25 13 22 7 -4 -6 -1 -11 8 -11 8 0 17 4 21 9 3 5 19 9 35 9
17 -1 40 8 52 18 12 10 18 13 14 7 -9 -16 -1 -16 25 -3 16 9 19 7 19 -8 0 -11
5 -33 11 -50 10 -28 13 -30 32 -21 20 9 20 8 -2 -9 -21 -17 -22 -21 -10 -45
l14 -26 62 45 61 44 -16 50 c-12 38 -20 49 -32 45 -13 -5 -13 -4 0 7 15 13 16
48 1 48 -4 0 -14 -7 -23 -16z"/>
<path d="M6510 3515 c-14 -17 -35 -21 -25 -5 8 13 -15 13 -35 0 -13 -9 -13
-10 0 -10 10 0 11 -3 4 -8 -14 -9 -14 -42 0 -42 6 0 3 -5 -6 -11 -10 -5 -18
-14 -18 -19 0 -5 8 -7 18 -4 9 2 7 -1 -5 -7 -24 -12 -31 -29 -13 -29 6 0 10
-4 10 -10 0 -5 -6 -10 -13 -10 -8 0 -14 -6 -14 -14 0 -15 53 -20 62 -6 3 5 13
6 22 3 10 -4 14 -2 10 4 -4 5 5 15 20 22 22 10 25 9 20 -4 -7 -17 1 -19 23 -5
8 5 11 10 5 10 -5 0 -2 5 9 11 14 9 21 8 27 -2 6 -9 12 -10 17 -4 4 6 18 16
32 23 25 12 25 12 -5 7 -16 -3 -52 -7 -78 -10 -27 -2 -51 -7 -55 -9 -8 -5 -8
46 0 60 3 5 8 26 12 47 7 39 -3 48 -24 22z"/>
<path d="M6415 3139 c-4 -5 -2 -16 5 -24 15 -18 -3 -28 -33 -20 -15 4 -18 3
-9 -3 11 -7 10 -11 -4 -16 -9 -3 -15 -9 -12 -12 3 -2 18 0 34 6 l28 11 -19
-23 c-11 -12 -30 -30 -41 -40 -12 -9 -21 -28 -20 -40 2 -28 10 -28 163 5 62
14 119 32 128 41 21 21 31 21 14 -1 -24 -29 42 -6 69 24 27 29 23 40 -8 23
-12 -6 -33 -9 -46 -6 -17 5 -26 1 -33 -13 -6 -10 -18 -21 -28 -25 -17 -6 -17
-5 0 8 15 12 15 14 3 19 -9 4 -19 0 -23 -7 -5 -7 -18 -18 -30 -24 -19 -11 -20
-9 -15 11 5 19 4 20 -11 9 -9 -8 -21 -11 -27 -7 -14 9 -91 -36 -83 -48 4 -6 1
-7 -7 -2 -10 6 -4 15 21 36 37 30 35 48 -3 29 -22 -11 -22 -10 -3 4 39 29 45
37 45 52 0 11 -6 14 -17 10 -17 -6 -17 -5 0 8 9 7 17 15 17 17 0 10 -49 8 -55
-2z"/>
</g>
</svg>
